<svg xmlns="http://www.w3.org/2000/svg" width="34.5" height="30.511" viewBox="0 0 34.5 30.511">
  <g id="Group_8376" data-name="Group 8376" transform="translate(-14.75 -342.739)">
    <g id="Group_8370" data-name="Group 8370">
      <rect id="Rectangle_5745" data-name="Rectangle 5745" width="19" height="19" transform="translate(30 354)" fill="#00c781" stroke="#33313c" stroke-width="0.5"/>
      <rect id="Rectangle_5744" data-name="Rectangle 5744" width="19" height="19" transform="translate(15 343)" fill="#ff4040" stroke="#33313c" stroke-width="0.5"/>
      <g id="Rectangle_5743" data-name="Rectangle 5743" transform="translate(30 354)" fill="#ff4040" stroke="#fff" stroke-width="1">
        <rect width="19" height="19" stroke="none"/>
        <rect x="0.5" y="0.5" width="18" height="18" fill="none"/>
      </g>
      <g id="Rectangle_5742" data-name="Rectangle 5742" transform="translate(15 343)" fill="#00c781" stroke="#fff" stroke-width="1">
        <rect width="19" height="19" stroke="none"/>
        <rect x="0.5" y="0.5" width="18" height="18" fill="none"/>
      </g>
    </g>
    <g id="Group_8371" data-name="Group 8371" transform="translate(0.265 0.239)">
      <path id="Path_24295" data-name="Path 24295" d="M11579.266-1000.517h5.881v5.83" transform="translate(-11538.206 1344.796)" fill="none" stroke="#606060" stroke-width="1"/>
      <g id="Polygon_80" data-name="Polygon 80" transform="translate(39.714 346.088) rotate(-90)" fill="#fff">
        <path d="M 2.653814792633057 2.19105863571167 L 0.9342615008354187 2.19105863571167 L 1.79403817653656 0.901393711566925 L 2.653814792633057 2.19105863571167 Z" stroke="none"/>
        <path d="M 1.79403817653656 -1.192092895507812e-06 L 3.588078260421753 2.69105863571167 L -1.9073486328125e-06 2.69105863571167 L 1.79403817653656 -1.192092895507812e-06 Z" stroke="none" fill="#606060"/>
      </g>
      <g id="Polygon_81" data-name="Polygon 81" transform="translate(48.735 351.006) rotate(180)" fill="#fff">
        <path d="M 2.653814792633057 2.19105863571167 L 0.9342615008354187 2.19105863571167 L 1.79403817653656 0.901393711566925 L 2.653814792633057 2.19105863571167 Z" stroke="none"/>
        <path d="M 1.79403817653656 -1.192092895507812e-06 L 3.588078260421753 2.69105863571167 L -1.9073486328125e-06 2.69105863571167 L 1.79403817653656 -1.192092895507812e-06 Z" stroke="none" fill="#606060"/>
      </g>
    </g>
  </g>
</svg>
