<svg id="Capa_1" height="512" viewBox="0 0 512 512" width="512" xmlns="http://www.w3.org/2000/svg">
    <g>
        <path d="m437 0h-362c-41.355 0-75 33.645-75 75v362c0 41.355 33.645 75 75 75h362c41.355 0 75-33.645 75-75v-362c0-41.355-33.645-75-75-75zm-46 156c0 8.284-6.716 15-15 15s-15-6.716-15-15v-45h-195l102 136c4 5.333 4 12.667 0 18l-102 136h195v-45c0-8.284 6.716-15 15-15s15 6.716 15 15v60c0 8.284-6.716 15-15 15h-240c-5.682 0-10.876-3.21-13.416-8.292-2.541-5.082-1.993-11.163 1.416-15.708l113.25-151-113.25-151c-3.409-4.545-3.957-10.626-1.416-15.708 2.54-5.082 7.734-8.292 13.416-8.292h240c8.284 0 15 6.716 15 15z" fill="#3b5eb1" />
    </g>
</svg>