<svg id="swap" xmlns="http://www.w3.org/2000/svg" width="32.913" height="21.942" viewBox="0 0 32.913 21.942">
  <g id="Group_4156" data-name="Group 4156" transform="translate(0 0)">
    <g id="Group_4155" data-name="Group 4155" transform="translate(0 0)">
      <path id="Path_3811" data-name="Path 3811" d="M4.685,93.562H20.573a1.371,1.371,0,1,0,0-2.743H4.685l3.144-3.144A1.371,1.371,0,0,0,5.89,85.735L.4,91.221c-.032.032-.062.066-.091.1-.013.016-.024.033-.036.049s-.03.039-.043.059-.024.04-.036.06-.023.036-.033.055-.02.041-.03.062-.019.039-.028.059-.015.041-.022.062-.016.043-.023.065-.011.041-.016.062-.012.045-.017.068S.021,91.971.018,92s-.007.04-.009.06a1.38,1.38,0,0,0,0,.271c0,.02.006.04.009.06s.006.049.011.073.011.045.017.068.01.042.016.062.015.044.023.065.014.041.022.062.018.04.028.059.019.042.03.062.022.037.033.055.023.04.036.06.029.039.043.059.024.033.037.049c.028.035.058.068.09.1h0L5.89,98.646a1.371,1.371,0,0,0,1.939-1.939Z" transform="translate(-0.002 -85.334)" fill="#000"/>
      <path id="Path_3812" data-name="Path 3812" d="M192.3,221.063c.013-.016.024-.033.037-.049s.03-.038.043-.059.024-.04.036-.06.022-.036.033-.055.02-.042.03-.062.019-.039.028-.059.015-.041.023-.062.016-.043.023-.065.011-.042.016-.062.012-.045.017-.068.008-.048.011-.073.007-.04.009-.06a1.378,1.378,0,0,0,0-.271c0-.02-.006-.04-.009-.06s-.006-.049-.011-.073-.011-.045-.017-.068-.01-.042-.016-.062-.015-.044-.023-.065-.014-.041-.023-.062-.018-.04-.028-.059-.019-.042-.03-.062-.022-.037-.033-.055-.023-.04-.036-.06-.029-.039-.043-.059-.024-.033-.037-.049c-.028-.034-.058-.068-.089-.1h0l-5.486-5.486a1.371,1.371,0,1,0-1.939,1.939l3.144,3.144H172.038a1.371,1.371,0,0,0,0,2.743h15.889l-3.144,3.144a1.371,1.371,0,1,0,1.939,1.939l5.486-5.486h0Q192.256,221.114,192.3,221.063Z" transform="translate(-159.696 -205.108)" fill="#000"/>
    </g>
  </g>
</svg>
