<svg xmlns="http://www.w3.org/2000/svg" width="42" height="42" viewBox="0 0 42 42">
  <g id="Dark_Stain" data-name="Dark Stain" transform="translate(8883 -8588)">
    <rect id="Rectangle_5731" data-name="Rectangle 5731" width="42" height="42" transform="translate(-8883 8588)" fill="none"/>
    <g id="Group_8324" data-name="Group 8324" transform="translate(-9082.586 8108)">
      <g id="pistachio" transform="translate(173.946 430.838) rotate(45)">
        <path id="Path_3661" data-name="Path 3661" d="M213.71,2.257a5.346,5.346,0,0,0-8.736.014c1.735,2.643,3.232,7.111,4.363,11.295,1.126-4.191,2.622-8.668,4.373-11.308Z" transform="translate(-127.348)" fill="#3b5eb1"/>
        <path id="Path_3662" data-name="Path 3662" d="M89.267,34.765C85.5,37.13,81.99,55.556,81.99,55.556S78.433,37.2,74.713,34.765c-2.506,1.177-5.121,7.085-5.186,14.321-.07,7.71,3.518,16.786,12.323,16.865S94.4,57.021,94.474,49.31C94.528,43.358,91.751,35.987,89.267,34.765Z" transform="translate(0 -32.686)" fill="#3b5eb1"/>
      </g>
      <g id="Group_4091" data-name="Group 4091">
        <g id="Ellipse_107" data-name="Ellipse 107" transform="translate(207.086 502.706)" fill="#fff" stroke="#fff" stroke-width="0.15">
          <circle cx="0.5" cy="0.5" r="0.5" stroke="none"/>
          <circle cx="0.5" cy="0.5" r="0.575" fill="none"/>
        </g>
        <g id="Ellipse_108" data-name="Ellipse 108" transform="translate(212.086 502.706)" fill="#fff" stroke="#fff" stroke-width="0.15">
          <circle cx="0.5" cy="0.5" r="0.5" stroke="none"/>
          <circle cx="0.5" cy="0.5" r="0.575" fill="none"/>
        </g>
        <g id="Ellipse_109" data-name="Ellipse 109" transform="translate(210.086 499.706)" fill="#fff" stroke="#fff" stroke-width="0.15">
          <circle cx="0.5" cy="0.5" r="0.5" stroke="none"/>
          <circle cx="0.5" cy="0.5" r="0.575" fill="none"/>
        </g>
        <g id="Ellipse_111" data-name="Ellipse 111" transform="translate(214.086 499.706)" fill="#fff" stroke="#fff" stroke-width="0.15">
          <circle cx="0.5" cy="0.5" r="0.5" stroke="none"/>
          <circle cx="0.5" cy="0.5" r="0.575" fill="none"/>
        </g>
        <g id="Ellipse_112" data-name="Ellipse 112" transform="translate(213.086 496.706)" fill="#fff" stroke="#fff" stroke-width="0.15">
          <circle cx="0.5" cy="0.5" r="0.5" stroke="none"/>
          <circle cx="0.5" cy="0.5" r="0.575" fill="none"/>
        </g>
        <g id="Ellipse_113" data-name="Ellipse 113" transform="translate(211.086 492.706)" fill="#fff" stroke="#fff" stroke-width="0.15">
          <circle cx="0.5" cy="0.5" r="0.5" stroke="none"/>
          <circle cx="0.5" cy="0.5" r="0.575" fill="none"/>
        </g>
        <g id="Ellipse_114" data-name="Ellipse 114" transform="translate(214.086 492.706)" fill="#fff" stroke="#fff" stroke-width="0.15">
          <circle cx="0.5" cy="0.5" r="0.5" stroke="none"/>
          <circle cx="0.5" cy="0.5" r="0.575" fill="none"/>
        </g>
        <g id="Ellipse_115" data-name="Ellipse 115" transform="translate(217.086 494.706)" fill="#fff" stroke="#fff" stroke-width="0.15">
          <circle cx="0.5" cy="0.5" r="0.5" stroke="none"/>
          <circle cx="0.5" cy="0.5" r="0.575" fill="none"/>
        </g>
        <g id="Ellipse_116" data-name="Ellipse 116" transform="translate(220.086 492.706)" fill="#fff" stroke="#fff" stroke-width="0.15">
          <circle cx="0.5" cy="0.5" r="0.5" stroke="none"/>
          <circle cx="0.5" cy="0.5" r="0.575" fill="none"/>
        </g>
        <g id="Ellipse_117" data-name="Ellipse 117" transform="translate(217.086 490.706)" fill="#fff" stroke="#fff" stroke-width="0.15">
          <circle cx="0.5" cy="0.5" r="0.5" stroke="none"/>
          <circle cx="0.5" cy="0.5" r="0.575" fill="none"/>
        </g>
        <g id="Ellipse_118" data-name="Ellipse 118" transform="translate(214.086 489.706)" fill="#fff" stroke="#fff" stroke-width="0.15">
          <circle cx="0.5" cy="0.5" r="0.5" stroke="none"/>
          <circle cx="0.5" cy="0.5" r="0.575" fill="none"/>
        </g>
        <g id="Ellipse_119" data-name="Ellipse 119" transform="translate(218.086 487.706)" fill="#fff" stroke="#fff" stroke-width="0.15">
          <circle cx="0.5" cy="0.5" r="0.5" stroke="none"/>
          <circle cx="0.5" cy="0.5" r="0.575" fill="none"/>
        </g>
        <g id="Ellipse_120" data-name="Ellipse 120" transform="translate(221.086 489.706)" fill="#fff" stroke="#fff" stroke-width="0.15">
          <circle cx="0.5" cy="0.5" r="0.5" stroke="none"/>
          <circle cx="0.5" cy="0.5" r="0.575" fill="none"/>
        </g>
        <g id="Ellipse_121" data-name="Ellipse 121" transform="translate(222.086 486.706)" fill="#fff" stroke="#fff" stroke-width="0.15">
          <circle cx="0.5" cy="0.5" r="0.5" stroke="none"/>
          <circle cx="0.5" cy="0.5" r="0.575" fill="none"/>
        </g>
        <g id="Ellipse_110" data-name="Ellipse 110" transform="translate(209.086 496.706)" fill="#fff" stroke="#fff" stroke-width="0.15">
          <circle cx="0.5" cy="0.5" r="0.5" stroke="none"/>
          <circle cx="0.5" cy="0.5" r="0.575" fill="none"/>
        </g>
      </g>
    </g>
  </g>
</svg>
