<svg id="Group_8017" data-name="Group 8017" xmlns="http://www.w3.org/2000/svg" width="22.982" height="29.646" viewBox="0 0 22.982 29.646">
  <g id="Group_80" data-name="Group 80" transform="translate(3.019 11.592)">
    <g id="Group_79" data-name="Group 79">
      <path id="Path_112" data-name="Path 112" d="M475.379,247.263a1.641,1.641,0,0,1,.577.3h0c.021.025.077.089-.062.083a1.93,1.93,0,0,1-.857-.337l-.01-.011c-.072-.087.034-.092.1-.089a1.214,1.214,0,0,1,.247.051" transform="translate(-457.233 -246.125)" fill="#4da9e4"/>
      <path id="Path_113" data-name="Path 113" d="M479.412,252.957a1.183,1.183,0,0,1,.577.394h0c.073.215-.486.064-.827-.138-.2-.117-.23-.188-.243-.224-.047-.156.254-.122.492-.038" transform="translate(-460.407 -250.73)" fill="#4da9e4"/>
      <path id="Path_114" data-name="Path 114" d="M480.948,259.343c.207.089.524.3.547.5h0c-.015.328-.953-.032-1.159-.358a.189.189,0,0,1-.036-.117c.017-.188.349-.16.648-.032" transform="translate(-461.532 -255.887)" fill="#4da9e4"/>
      <path id="Path_115" data-name="Path 115" d="M479.991,266.389c.226.115.543.377.49.618h0c-.147.377-1.185-.094-1.3-.469a.2.2,0,0,1,0-.139c.092-.219.494-.179.814-.017" transform="translate(-460.611 -261.578)" fill="#4da9e4"/>
      <path id="Path_116" data-name="Path 116" d="M476.591,273.935c.241.143.546.46.407.743v.009c-.284.428-1.334-.081-1.425-.552a.277.277,0,0,1,.038-.207c.188-.251.652-.189.984,0" transform="translate(-457.692 -267.676)" fill="#4da9e4"/>
      <path id="Path_117" data-name="Path 117" d="M470.74,281.88c.305.217.5.586.29.874v.011c-.46.494-1.566-.138-1.542-.692a.363.363,0,0,1,.1-.237.937.937,0,0,1,1.157.043" transform="translate(-452.758 -274.082)" fill="#4da9e4"/>
      <path id="Path_118" data-name="Path 118" d="M462.383,290.165a.684.684,0,0,1,.143,1.012l-.011.013a1.081,1.081,0,0,1-1.651-.784.512.512,0,0,1,.188-.332,1.088,1.088,0,0,1,1.332.09" transform="translate(-445.756 -280.761)" fill="#4da9e4"/>
      <path id="Path_119" data-name="Path 119" d="M451.633,298.673a.754.754,0,0,1-.036,1.153l-.015.013c-.784.545-1.884-.155-1.756-.876a.717.717,0,0,1,.3-.441,1.223,1.223,0,0,1,1.508.151" transform="translate(-436.793 -287.614)" fill="#4da9e4"/>
      <path id="Path_120" data-name="Path 120" d="M441.159,307.236a.869.869,0,0,1-.247,1.295l-.026.007c-.942.552-2.056-.177-1.862-.965a.957.957,0,0,1,.454-.565,1.319,1.319,0,0,1,1.675.226" transform="translate(-428.017 -294.493)" fill="#4da9e4"/>
      <path id="Path_121" data-name="Path 121" d="M428.876,315.141a1.029,1.029,0,0,1-.49,1.434l-.028.009c-1.1.565-2.222-.2-1.971-1.052a1.2,1.2,0,0,1,.648-.71,1.418,1.418,0,0,1,1.839.313" transform="translate(-417.75 -300.844)" fill="#4da9e4"/>
      <path id="Path_122" data-name="Path 122" d="M414.406,325.1a1.237,1.237,0,0,1-.739,1.594l-.03.017c-1.308.565-2.325-.358-2.082-1.193a1.407,1.407,0,0,1,.846-.869,1.51,1.51,0,0,1,2.005.45" transform="translate(-405.713 -308.834)" fill="#4da9e4"/>
      <path id="Path_123" data-name="Path 123" d="M454.713,241.474a1.362,1.362,0,0,1,.565.1h0c.023.013.092.058-.019.094a1.508,1.508,0,0,1-.8-.051l-.015-.009c-.083-.057,0-.092.055-.107a.812.812,0,0,1,.213-.026" transform="translate(-440.524 -241.47)" fill="#4da9e4"/>
      <path id="Path_124" data-name="Path 124" d="M460.579,245.692a1.131,1.131,0,0,1,.592.16h0c.106.122-.209.151-.434.139a1.118,1.118,0,0,1-.55-.138v-.011c-.087-.109.175-.16.4-.154" transform="translate(-445.195 -244.893)" fill="#4da9e4"/>
      <path id="Path_125" data-name="Path 125" d="M464.163,250.653c.171.015.52.083.6.236h0c.079.236-.778.177-1.053.021a.189.189,0,0,1-.1-.092c-.04-.143.29-.188.543-.168" transform="translate(-447.99 -248.916)" fill="#4da9e4"/>
      <path id="Path_126" data-name="Path 126" d="M465.587,256.249c.224.034.565.147.59.324h0c-.019.311-1.112.149-1.266-.087a.14.14,0,0,1-.021-.072c.019-.164.377-.217.7-.171" transform="translate(-449.026 -253.447)" fill="#4da9e4"/>
      <path id="Path_127" data-name="Path 127" d="M464.8,262.421c.205.043.584.188.55.42h0c-.145.377-1.319.117-1.408-.177a.159.159,0,0,1,0-.085c.087-.2.511-.239.854-.166" transform="translate(-448.254 -258.439)" fill="#4da9e4"/>
      <path id="Path_128" data-name="Path 128" d="M461.808,269.116c.32.092.588.305.479.528v.009c-.277.409-1.464.1-1.525-.252a.188.188,0,0,1,.032-.134c.168-.228.66-.256,1.018-.151" transform="translate(-445.675 -263.859)" fill="#4da9e4"/>
      <path id="Path_129" data-name="Path 129" d="M456.619,276.207c.332.128.565.39.377.644v.011c-.416.441-1.6.1-1.626-.335a.274.274,0,0,1,.081-.188,1.218,1.218,0,0,1,1.178-.124" transform="translate(-441.3 -269.593)" fill="#4da9e4"/>
      <path id="Path_130" data-name="Path 130" d="M449.135,283.531c.339.168.52.5.239.769l-.011.009c-.554.465-1.726.079-1.713-.42a.377.377,0,0,1,.151-.275,1.349,1.349,0,0,1,1.334-.083" transform="translate(-435.034 -275.494)" fill="#4da9e4"/>
      <path id="Path_131" data-name="Path 131" d="M439.506,291.117a.512.512,0,0,1,.068.9l-.015.013c-.71.49-1.856.053-1.79-.514a.566.566,0,0,1,.252-.366,1.463,1.463,0,0,1,1.485-.028" transform="translate(-427.013 -281.608)" fill="#4da9e4"/>
      <path id="Path_132" data-name="Path 132" d="M427.556,298.807c.3.249.354.694-.139,1.027l-.021.013c-.856.5-1.984.017-1.858-.607a.771.771,0,0,1,.388-.471,1.518,1.518,0,0,1,1.63.038" transform="translate(-417.082 -287.796)" fill="#4da9e4"/>
      <path id="Path_133" data-name="Path 133" d="M415.147,307.263c.273.3.23.8-.377,1.157l-.023.013c-1.012.505-2.111-.021-1.92-.7a1,1,0,0,1,.565-.592,1.548,1.548,0,0,1,1.758.121" transform="translate(-406.757 -294.599)" fill="#4da9e4"/>
      <path id="Path_134" data-name="Path 134" d="M401.852,315.792c.232.349.1.91-.616,1.266l-.026.013c-1.168.5-2.116-.16-1.92-.816a1.209,1.209,0,0,1,.731-.7,1.521,1.521,0,0,1,1.832.237" transform="translate(-395.767 -301.447)" fill="#4da9e4"/>
      <path id="Path_135" data-name="Path 135" d="M439.844,243.849a1.076,1.076,0,0,1,.545,0h0c.111.07-.1.147-.164.17a1.244,1.244,0,0,1-.675.053h-.013c-.1-.07.106-.162.26-.2l.043-.011" transform="translate(-428.429 -243.372)" fill="#4da9e4"/>
      <path id="Path_136" data-name="Path 136" d="M445,247.4a.947.947,0,0,1,.592.041h0c.113.134-.464.275-.808.26-.16,0-.2-.041-.211-.053h0c-.074-.094.2-.2.432-.243" transform="translate(-432.524 -246.259)" fill="#4da9e4"/>
      <path id="Path_137" data-name="Path 137" d="M448.185,251.609c.179-.021.537-.028.614.1h0c.073.217-.942.337-1.15.209a.088.088,0,0,1-.04-.045c-.034-.124.311-.234.565-.266" transform="translate(-435.001 -249.688)" fill="#4da9e4"/>
      <path id="Path_138" data-name="Path 138" d="M449.514,256.4c.234-.015.59.019.614.168h0c-.011.188-.513.241-.565.249-.377.04-.7,0-.754-.1a.08.08,0,0,1-.009-.04c.021-.153.432-.26.722-.277" transform="translate(-435.968 -253.586)" fill="#4da9e4"/>
      <path id="Path_139" data-name="Path 139" d="M448.872,261.7c.254,0,.62.066.588.249h0c-.128.328-1.359.318-1.457.1a.1.1,0,0,1,0-.07c.079-.173.515-.281.873-.281" transform="translate(-435.316 -257.88)" fill="#4da9e4"/>
      <path id="Path_140" data-name="Path 140" d="M446.312,267.45c.335.024.626.149.533.341h0c-.262.377-1.557.283-1.575.009a.135.135,0,0,1,.026-.083,1.379,1.379,0,0,1,1.019-.273" transform="translate(-433.104 -262.546)" fill="#4da9e4"/>
      <path id="Path_141" data-name="Path 141" d="M441.821,273.6c.337.051.609.222.443.441v.009c-.39.411-1.666.253-1.664-.072a.189.189,0,0,1,.062-.126,1.583,1.583,0,0,1,1.167-.253" transform="translate(-429.314 -267.527)" fill="#4da9e4"/>
      <path id="Path_142" data-name="Path 142" d="M435.329,279.931c.339.083.565.3.32.55h-.009c-.528.437-1.77.23-1.734-.158a.313.313,0,0,1,.117-.188,1.707,1.707,0,0,1,1.306-.219" transform="translate(-423.881 -272.636)" fill="#4da9e4"/>
      <path id="Path_143" data-name="Path 143" d="M426.893,286.6c.334.119.5.392.16.663l-.013.011c-.66.451-1.86.189-1.777-.256a.462.462,0,0,1,.188-.249,1.8,1.8,0,0,1,1.434-.17" transform="translate(-416.863 -278.036)" fill="#4da9e4"/>
      <path id="Path_144" data-name="Path 144" d="M416.338,293.329c.313.16.405.488-.038.782l-.017.011c-.816.471-1.952.145-1.8-.358a.681.681,0,0,1,.307-.328,1.819,1.819,0,0,1,1.549-.107" transform="translate(-408.106 -283.454)" fill="#4da9e4"/>
      <path id="Path_145" data-name="Path 145" d="M403.971,300.075c.281.205.281.592-.273.9l-.021.011c-.984.486-1.949.085-1.83-.405.028-.121.136-.3.479-.477a1.747,1.747,0,0,1,1.645-.032" transform="translate(-397.856 -288.879)" fill="#4da9e4"/>
      <path id="Path_146" data-name="Path 146" d="M389.967,306.723c.234.254.138.692-.505,1l-.024.013c-1.046.445-1.937-.015-1.783-.528.043-.151.188-.377.628-.565a1.634,1.634,0,0,1,1.685.077" transform="translate(-386.332 -294.216)" fill="#4da9e4"/>
      <path id="Path_147" data-name="Path 147" d="M414.27,284.624c.354.051.484.226.3.405a.507.507,0,0,1-.06.051l-.011.009c-.607.411-1.745.286-1.73,0,0-.089.1-.158.151-.188a2.234,2.234,0,0,1,1.349-.273" transform="translate(-406.728 -276.483)" fill="#4da9e4"/>
      <path id="Path_148" data-name="Path 148" d="M405.407,290.344c.334.09.392.307.138.507-.023.019-.055.04-.079.057l-.015.009c-.754.43-1.794.23-1.724-.1.025-.121.188-.217.243-.253a2.2,2.2,0,0,1,1.438-.217" transform="translate(-399.386 -281.103)" fill="#4da9e4"/>
      <path id="Path_149" data-name="Path 149" d="M394.745,296.073c.283.128.32.407-.166.673l-.019.011c-.88.432-1.832.166-1.7-.211.06-.168.3-.286.377-.326a2.038,2.038,0,0,1,1.508-.147" transform="translate(-390.563 -285.713)" fill="#4da9e4"/>
      <path id="Path_150" data-name="Path 150" d="M382.751,301.726c.237.173.155.509-.39.767l-.021.009c-.908.377-1.728.094-1.621-.29.045-.158.22-.307.522-.441a1.757,1.757,0,0,1,1.508-.045" transform="translate(-380.71 -290.253)" fill="#4da9e4"/>
    </g>
  </g>
  <path id="Path_151" data-name="Path 151" d="M421.473,279.094c.3.045.415.188.26.347-.015.015-.038.032-.053.045h-.009c-.52.351-1.493.243-1.481,0,0-.073.089-.134.13-.164a1.915,1.915,0,0,1,1.153-.234" transform="translate(-409.731 -260.397)" fill="#4da9e4"/>
  <path id="Path_152" data-name="Path 152" d="M427.239,273.831c.256.038.351.164.219.294l-.043.038H427.4c-.439.3-1.264.207-1.255,0,0-.064.075-.115.111-.139a1.62,1.62,0,0,1,.978-.2" transform="translate(-414.567 -256.127)" fill="#4da9e4"/>
  <path id="Path_153" data-name="Path 153" d="M434.214,269.111c.188.026.253.117.156.209l-.032.028h0c-.315.213-.906.149-.9,0,0-.045.053-.083.079-.1a1.16,1.16,0,0,1,.7-.141" transform="translate(-420.484 -252.3)" fill="#4da9e4"/>
  <path id="Path_154" data-name="Path 154" d="M437.959,265.462c.119.017.162.075.1.136l-.021.019h0c-.2.138-.584.1-.58,0,0-.03.036-.053.051-.064a.754.754,0,0,1,.452-.092" transform="translate(-423.746 -249.343)" fill="#4da9e4"/>
  <path id="Path_155" data-name="Path 155" d="M439.077,260.984c.106.017.145.068.09.122l-.019.015h0c-.188.124-.522.087-.518,0,0-.026.032-.047.045-.057a.684.684,0,0,1,.4-.081" transform="translate(-424.696 -245.711)" fill="#4da9e4"/>
  <path id="Path_156" data-name="Path 156" d="M438.491,255.71c.073.011.1.047.064.085l-.013.011h0c-.128.085-.366.058-.362,0,0-.019.021-.034.03-.041a.478.478,0,0,1,.283-.057" transform="translate(-424.331 -241.43)" fill="#4da9e4"/>
  <path id="Path_157" data-name="Path 157" d="M435.122,251.83c.066.009.09.043.057.077h-.011c-.115.077-.332.055-.328,0,0-.017.019-.03.028-.038a.432.432,0,0,1,.256-.051" transform="translate(-421.62 -238.274)" fill="#4da9e4"/>
  <g id="Group_82" data-name="Group 82">
    <g id="Group_81" data-name="Group 81">
      <path id="Path_158" data-name="Path 158" d="M371.707,268.061a1.635,1.635,0,0,1-.579-.3h0c-.021-.024-.075-.09.062-.085a1.943,1.943,0,0,1,.857.337l.011.011c.07.087-.036.092-.1.089a1.206,1.206,0,0,1-.245-.051" transform="translate(-369.892 -251.147)" fill="#4da9e4"/>
      <path id="Path_159" data-name="Path 159" d="M367.307,261.783a1.1,1.1,0,0,1-.565-.394h0c-.074-.215.486-.064.829.138.188.117.228.188.241.224.049.158-.254.122-.492.038" transform="translate(-366.35 -245.958)" fill="#4da9e4"/>
      <path id="Path_160" data-name="Path 160" d="M365.238,254.705c-.209-.089-.526-.3-.548-.5h0c.017-.326.954.032,1.159.358a.2.2,0,0,1,.038.119c-.017.188-.35.158-.648.03" transform="translate(-364.69 -240.109)" fill="#4da9e4"/>
      <path id="Path_161" data-name="Path 161" d="M365.647,246.975c-.226-.115-.545-.377-.492-.618h0c.145-.386,1.183.1,1.3.469a.2.2,0,0,1,0,.139c-.092.219-.494.188-.812.017" transform="translate(-365.063 -233.728)" fill="#4da9e4"/>
      <path id="Path_162" data-name="Path 162" d="M368.427,238.65c-.239-.143-.547-.46-.407-.742h0c.285-.428,1.332.081,1.423.552a.284.284,0,0,1-.038.209c-.188.251-.652.188-.984-.009" transform="translate(-367.364 -226.856)" fill="#4da9e4"/>
      <path id="Path_163" data-name="Path 163" d="M373.567,229.788c-.305-.217-.5-.586-.29-.874V228.9c.458-.494,1.566.138,1.542.692a.377.377,0,0,1-.1.239.94.94,0,0,1-1.157-.045" transform="translate(-371.586 -219.534)" fill="#4da9e4"/>
      <path id="Path_164" data-name="Path 164" d="M381.043,220.641a.684.684,0,0,1-.143-1.012l.013-.011a1.079,1.079,0,0,1,1.649.784.512.512,0,0,1-.189.33,1.085,1.085,0,0,1-1.332-.09" transform="translate(-377.707 -211.993)" fill="#4da9e4"/>
      <path id="Path_165" data-name="Path 165" d="M390.8,211.21a.754.754,0,0,1,.034-1.153l.017-.013c.782-.545,1.885.155,1.756.876a.718.718,0,0,1-.3.441,1.216,1.216,0,0,1-1.508-.151" transform="translate(-385.671 -204.215)" fill="#4da9e4"/>
      <path id="Path_166" data-name="Path 166" d="M400.07,201.666a.869.869,0,0,1,.247-1.293l.021-.015c.942-.552,2.056.177,1.862.965a.957.957,0,0,1-.454.565,1.319,1.319,0,0,1-1.675-.226" transform="translate(-393.249 -196.357)" fill="#4da9e4"/>
      <path id="Path_167" data-name="Path 167" d="M411.012,192.811a1.026,1.026,0,0,1,.49-1.432l.025-.015c1.106-.565,2.222.2,1.973,1.05a1.212,1.212,0,0,1-.65.71,1.415,1.415,0,0,1-1.837-.313" transform="translate(-402.173 -189.057)" fill="#4da9e4"/>
      <path id="Path_168" data-name="Path 168" d="M424.085,181.74a1.237,1.237,0,0,1,.739-1.594l.03-.015c1.308-.565,2.326.356,2.084,1.191a1.418,1.418,0,0,1-.846.869,1.511,1.511,0,0,1-2.007-.45" transform="translate(-412.816 -179.956)" fill="#4da9e4"/>
      <path id="Path_169" data-name="Path 169" d="M392.727,274.776a1.338,1.338,0,0,1-.556-.1h0c-.023-.013-.09-.058.019-.094a1.507,1.507,0,0,1,.8.051H393c.085.057,0,.092-.055.107a.814.814,0,0,1-.213.026" transform="translate(-386.958 -256.728)" fill="#4da9e4"/>
      <path id="Path_170" data-name="Path 170" d="M386.364,270.21a1.11,1.11,0,0,1-.592-.16h0c-.1-.122.211-.151.433-.139a1.093,1.093,0,0,1,.55.139l.009.009c.087.109-.175.16-.4.155" transform="translate(-381.783 -252.956)" fill="#4da9e4"/>
      <path id="Path_171" data-name="Path 171" d="M382.18,264.839c-.171-.015-.52-.083-.6-.236h0c-.081-.236.778-.175,1.053-.021a.188.188,0,0,1,.094.094c.04.141-.288.188-.543.166" transform="translate(-378.39 -248.524)" fill="#4da9e4"/>
      <path id="Path_172" data-name="Path 172" d="M380.2,258.749c-.224-.032-.565-.145-.59-.322h0c.017-.313,1.11-.149,1.265.085a.124.124,0,0,1,.021.072c-.019.166-.377.217-.7.172" transform="translate(-376.798 -243.499)" fill="#4da9e4"/>
      <path id="Path_173" data-name="Path 173" d="M380.438,252c-.205-.045-.584-.188-.548-.422h0c.147-.377,1.319-.117,1.408.177a.145.145,0,0,1,0,.085c-.087.188-.513.241-.856.168" transform="translate(-377.023 -237.932)" fill="#4da9e4"/>
      <path id="Path_174" data-name="Path 174" d="M382.837,244.737c-.32-.094-.588-.307-.477-.53h0c.275-.409,1.462-.1,1.523.251a.188.188,0,0,1-.032.134c-.168.23-.658.256-1.018.153" transform="translate(-379.009 -231.941)" fill="#4da9e4"/>
      <path id="Path_175" data-name="Path 175" d="M387.428,236.984c-.33-.126-.565-.39-.377-.645h0c.417-.443,1.6-.1,1.626.334a.281.281,0,0,1-.081.2,1.223,1.223,0,0,1-1.178.122" transform="translate(-382.783 -225.547)" fill="#4da9e4"/>
      <path id="Path_176" data-name="Path 176" d="M394.176,228.846c-.337-.168-.52-.5-.239-.769l.011-.009c.565-.465,1.728-.079,1.715.42a.388.388,0,0,1-.153.275,1.344,1.344,0,0,1-1.334.083" transform="translate(-388.313 -218.831)" fill="#4da9e4"/>
      <path id="Path_177" data-name="Path 177" d="M403.069,220.467a.512.512,0,0,1-.068-.9.045.045,0,0,1,.015-.011c.71-.492,1.856-.055,1.792.513a.565.565,0,0,1-.253.366,1.464,1.464,0,0,1-1.487.028" transform="translate(-395.592 -211.924)" fill="#4da9e4"/>
      <path id="Path_178" data-name="Path 178" d="M414.062,211.954c-.3-.249-.354-.693.139-1.027l.019-.011c.857-.5,1.984-.019,1.858.607a.771.771,0,0,1-.388.469,1.514,1.514,0,0,1-1.628-.038" transform="translate(-404.572 -204.913)" fill="#4da9e4"/>
      <path id="Path_179" data-name="Path 179" d="M425.411,202.644c-.271-.3-.23-.8.377-1.157l.025-.013c1.01-.505,2.109.021,1.92.7a1.012,1.012,0,0,1-.565.592,1.551,1.551,0,0,1-1.758-.121" transform="translate(-413.838 -197.256)" fill="#4da9e4"/>
      <path id="Path_180" data-name="Path 180" d="M437.909,193.361c-.234-.349-.1-.91.614-1.266l.028-.013c1.167-.5,2.115.16,1.918.816a1.21,1.21,0,0,1-.731.7,1.518,1.518,0,0,1-1.83-.237" transform="translate(-424.026 -189.653)" fill="#4da9e4"/>
      <path id="Path_181" data-name="Path 181" d="M407.572,272.131a1.084,1.084,0,0,1-.547,0h0c-.109-.07.1-.147.164-.168a1.213,1.213,0,0,1,.677-.053h.011c.1.072-.106.162-.26.2l-.042.011" transform="translate(-399.022 -254.56)" fill="#4da9e4"/>
      <path id="Path_182" data-name="Path 182" d="M401.827,268.407a.947.947,0,0,1-.592-.041h0c-.115-.134.462-.275.807-.26.16,0,.2.041.211.053v.009c.073.1-.2.2-.432.243" transform="translate(-394.337 -251.493)" fill="#4da9e4"/>
      <path id="Path_183" data-name="Path 183" d="M398,264.015c-.177.023-.535.028-.614-.1h0c-.073-.217.942-.335,1.151-.209a.1.1,0,0,1,.04.045c.032.124-.313.234-.565.266" transform="translate(-391.219 -247.883)" fill="#4da9e4"/>
      <path id="Path_184" data-name="Path 184" d="M396.094,258.941c-.232.015-.588-.017-.614-.168h0c.011-.188.513-.241.565-.249.377-.04.7,0,.754.1a.083.083,0,0,1,.009.04c-.019.153-.432.26-.722.277" transform="translate(-389.678 -243.706)" fill="#4da9e4"/>
      <path id="Path_185" data-name="Path 185" d="M396.151,253.328c-.256,0-.622-.066-.59-.249h0c.13-.328,1.359-.319,1.459-.1a.1.1,0,0,1,0,.07c-.079.173-.515.281-.871.281" transform="translate(-389.742 -239.091)" fill="#4da9e4"/>
      <path id="Path_186" data-name="Path 186" d="M398.164,247.191c-.336-.025-.626-.149-.532-.341h0c.262-.377,1.555-.283,1.576,0a.148.148,0,0,1-.026.081,1.376,1.376,0,0,1-1.021.273" transform="translate(-391.41 -234.042)" fill="#4da9e4"/>
      <path id="Path_187" data-name="Path 187" d="M402.13,240.589c-.337-.051-.607-.222-.443-.441h0c.39-.411,1.666-.253,1.664.07a.2.2,0,0,1-.06.126,1.588,1.588,0,0,1-1.168.253" transform="translate(-394.675 -228.605)" fill="#4da9e4"/>
      <path id="Path_188" data-name="Path 188" d="M408.055,233.583c-.341-.083-.565-.3-.32-.548h.009c.526-.437,1.768-.23,1.732.158a.3.3,0,0,1-.117.188,1.7,1.7,0,0,1-1.3.219" transform="translate(-399.539 -222.833)" fill="#4da9e4"/>
      <path id="Path_189" data-name="Path 189" d="M415.906,226.411c-.332-.119-.5-.392-.16-.663h.013c.66-.452,1.862-.188,1.777.254a.445.445,0,0,1-.188.249,1.8,1.8,0,0,1-1.434.17" transform="translate(-405.973 -216.927)" fill="#4da9e4"/>
      <path id="Path_190" data-name="Path 190" d="M425.855,218.952c-.313-.162-.407-.49.036-.784l.017-.011c.816-.471,1.952-.145,1.8.36a.684.684,0,0,1-.309.326,1.823,1.823,0,0,1-1.547.109" transform="translate(-414.113 -210.772)" fill="#4da9e4"/>
      <path id="Path_191" data-name="Path 191" d="M437.376,211.458c-.281-.207-.279-.594.273-.9l.021-.011c.986-.486,1.949-.085,1.83.407-.028.119-.134.3-.479.475a1.754,1.754,0,0,1-1.645.034" transform="translate(-423.529 -204.599)" fill="#4da9e4"/>
      <path id="Path_192" data-name="Path 192" d="M450.817,204.224c-.236-.254-.138-.692.5-1l.026-.013c1.044-.445,1.935.015,1.783.528-.045.151-.188.377-.629.565a1.63,1.63,0,0,1-1.683-.077" transform="translate(-434.491 -198.679)" fill="#4da9e4"/>
      <path id="Path_193" data-name="Path 193" d="M428.949,229.451c-.356-.051-.486-.226-.3-.405a.78.78,0,0,1,.06-.051h.013c.607-.411,1.743-.286,1.73,0,0,.089-.1.158-.151.188a2.239,2.239,0,0,1-1.349.273" transform="translate(-416.526 -219.54)" fill="#4da9e4"/>
      <path id="Path_194" data-name="Path 194" d="M437.4,223.187c-.332-.09-.392-.307-.138-.507.023-.019.057-.04.081-.057l.015-.009c.754-.43,1.792-.23,1.724.1-.026.122-.188.217-.245.253a2.2,2.2,0,0,1-1.438.217" transform="translate(-423.459 -214.376)" fill="#4da9e4"/>
      <path id="Path_195" data-name="Path 195" d="M447.54,216.876c-.283-.126-.319-.407.166-.673l.019-.011c.88-.432,1.832-.166,1.7.211a.769.769,0,0,1-.377.326,2.038,2.038,0,0,1-1.508.147" transform="translate(-431.759 -209.183)" fill="#4da9e4"/>
      <path id="Path_196" data-name="Path 196" d="M459.253,210.761c-.236-.173-.154-.509.39-.767l.021-.009c.91-.377,1.73-.094,1.621.29-.045.16-.22.307-.52.441a1.756,1.756,0,0,1-1.508.045" transform="translate(-441.331 -204.182)" fill="#4da9e4"/>
    </g>
  </g>
  <path id="Path_197" data-name="Path 197" d="M422.964,235.4c-.3-.043-.415-.188-.258-.347a.507.507,0,0,1,.051-.043h.011c.518-.352,1.492-.245,1.479,0,0,.075-.089.136-.128.164a1.92,1.92,0,0,1-1.155.234" transform="translate(-411.716 -224.45)" fill="#4da9e4"/>
  <path id="Path_198" data-name="Path 198" d="M418.2,241.078c-.256-.036-.351-.162-.219-.294l.043-.036h0c.441-.3,1.266-.207,1.255,0,0,.064-.075.115-.109.139a1.613,1.613,0,0,1-.98.188" transform="translate(-407.893 -229.137)" fill="#4da9e4"/>
  <path id="Path_199" data-name="Path 199" d="M412.919,246.459c-.188-.028-.251-.119-.156-.211l.032-.026h0c.317-.213.906-.149.9,0,0,.047-.053.083-.077.1a1.168,1.168,0,0,1-.7.143" transform="translate(-403.668 -233.622)" fill="#4da9e4"/>
  <path id="Path_200" data-name="Path 200" d="M410.665,250.692c-.119-.017-.162-.075-.1-.136l.021-.017h0c.2-.138.586-.1.58,0,0,.03-.034.053-.051.064a.754.754,0,0,1-.452.092" transform="translate(-401.897 -237.166)" fill="#4da9e4"/>
  <path id="Path_201" data-name="Path 201" d="M409.865,255.274c-.106-.015-.145-.068-.09-.123l.019-.015h0c.188-.124.522-.087.518,0,0,.026-.03.047-.045.057a.68.68,0,0,1-.405.083" transform="translate(-401.258 -240.904)" fill="#4da9e4"/>
  <path id="Path_202" data-name="Path 202" d="M411.155,260.845c-.074-.009-.1-.047-.062-.085l.011-.009h0c.126-.087.364-.06.362,0,0,.017-.023.032-.032.04a.464.464,0,0,1-.283.057" transform="translate(-402.334 -245.48)" fill="#4da9e4"/>
  <path id="Path_203" data-name="Path 203" d="M414.683,264.745c-.068-.009-.092-.043-.058-.077a.029.029,0,0,0,.011-.009h0c.115-.077.33-.053.326,0,0,.017-.019.03-.028.038a.415.415,0,0,1-.254.051" transform="translate(-405.202 -248.656)" fill="#4da9e4"/>
</svg>
