<svg xmlns="http://www.w3.org/2000/svg" width="98.117" height="100.245" viewBox="0 0 98.117 100.245">
  <g id="Group_8288" data-name="Group 8288" transform="translate(-692.393 -737.935)">
    <path id="Subtraction_8" data-name="Subtraction 8" d="M5024.771,9106.066H4971.95l15.41-15.41a20.692,20.692,0,0,0,8.9,1.983,20.944,20.944,0,0,0,20.893-20.893,20.717,20.717,0,0,0-1.983-8.9l17.55-17.551a17.384,17.384,0,0,1,4.825,8.378V9093.3a17.459,17.459,0,0,1-12.768,12.766Zm-65.879-5.328h0a17.443,17.443,0,0,1-3.918-7.437v-39.622a17.515,17.515,0,0,1,6.085-9.484,17.252,17.252,0,0,1,10.824-3.785h47.338l-12.981,12.981a20.9,20.9,0,0,0-28.341,28.341l-19.005,19.006Zm37.362-15.063a13.972,13.972,0,0,1-3.476-.437l16.966-16.967a13.932,13.932,0,0,1-13.49,17.4Zm-13.1-9.2v0a13.937,13.937,0,0,1,17.834-17.833l-17.833,17.834Zm33.023-43.031h-39.84l4.919-6.38a10.489,10.489,0,0,1,5.1-3.566h19.792a10.471,10.471,0,0,1,5.1,3.566l4.918,6.378Z" transform="translate(-4258.683 -8285.566)" fill="#949494"/>
    <rect id="Rectangle_5700" data-name="Rectangle 5700" width="6.143" height="132.615" rx="3.071" transform="translate(786.166 740.063) rotate(45)" fill="#949494"/>
  </g>
</svg>
