<svg xmlns="http://www.w3.org/2000/svg" width="42" height="42" viewBox="0 0 42 42">
  <g id="Crinkle_shell" data-name="Crinkle shell" transform="translate(8883 -7921)">
    <rect id="Rectangle_5724" data-name="Rectangle 5724" width="42" height="42" transform="translate(-8883 7921)" fill="none"/>
    <g id="pistachio" transform="translate(-8908.127 7872.061) rotate(45)">
      <path id="Path_3662" data-name="Path 3662" d="M81.244,32.907c-.531.334.584,1.346,2.064,3.609,1.414,1.7-.659,3.833-.263,5.06.956,1.065,1.272,1.265.093,3.6.638,3.221-.525,2.847-1.172,3.945-.58,1.006-.008,2.155.005,3.21a3.767,3.767,0,0,1,.091,3.351,8.24,8.24,0,0,1-2.1-4.554c.8-1.606-3.612-1.024.94-7.409-.976-1.968-.351-1.386.784-3.779-.354-3.026-1.08-5.94-2.364-6.779-2.52,1.184-9.726,8.737-9.791,16.014-.07,7.754,3.538,16.882,12.393,16.962s12.627-8.981,12.7-16.736C94.671,43.418,83.742,34.136,81.244,32.907Z" transform="translate(0 -32.686)" fill="#3b5eb1"/>
      <path id="Path_3667" data-name="Path 3667" d="M.809,4.138A3.205,3.205,0,0,0,2.765,2.6,2.865,2.865,0,0,0,3.058.186c-.2-.538-1.1.264-1.1.264A3.777,3.777,0,0,0,.477,1.676,4.126,4.126,0,0,0,0,3.593S.118,4.386.809,4.138Z" transform="matrix(-0.966, 0.259, -0.259, -0.966, 83.122, 15.989)" fill="#3b5eb1"/>
    </g>
  </g>
</svg>
