<svg xmlns="http://www.w3.org/2000/svg" width="41.873" height="41.873" viewBox="0 0 41.873 41.873">
  <g id="Group_4146" data-name="Group 4146" transform="translate(-4232 -8506.063)">
    <g id="Group_4145" data-name="Group 4145" transform="translate(3805.414 8026.772)">
      <g id="pistachio" transform="translate(400.946 430.838) rotate(45)">
        <path id="Path_3662" data-name="Path 3662" d="M83.86,31.993c-4.368-.779-1.409,18.562-1.947,23.684S95.38,27.814,78.92,32.061c-2.506,1.177-9.328,9.789-9.393,17.024-.07,7.71,3.518,16.786,12.323,16.865S94.4,57.021,94.474,49.31C94.528,43.358,86.2,32.714,83.86,31.993Z" transform="translate(0 -32.686)" fill="#3b5eb1"/>
      </g>
    </g>
    <path id="Path_3810" data-name="Path 3810" d="M-2.363-7.337A4.918,4.918,0,0,1-2.071-9.2,4.932,4.932,0,0,1-.922-10.732,8.836,8.836,0,0,0,.166-11.918a2.1,2.1,0,0,0,.353-1.166,1.775,1.775,0,0,0-.41-1.264,1.57,1.57,0,0,0-1.2-.435,1.741,1.741,0,0,0-1.227.427A1.5,1.5,0,0,0-2.781-13.2H-4.924A3.185,3.185,0,0,1-3.857-15.67a4.053,4.053,0,0,1,2.767-.911,3.948,3.948,0,0,1,2.762.9,3.23,3.23,0,0,1,.989,2.512,4.124,4.124,0,0,1-1.338,2.832L.24-9.266a2.9,2.9,0,0,0-.6,1.929ZM-2.511-4.6a1.125,1.125,0,0,1,.324-.837,1.2,1.2,0,0,1,.883-.32,1.2,1.2,0,0,1,.891.328A1.131,1.131,0,0,1-.089-4.6,1.126,1.126,0,0,1-.4-3.782a1.189,1.189,0,0,1-.9.328A1.176,1.176,0,0,1-2.2-3.782,1.135,1.135,0,0,1-2.511-4.6Z" transform="translate(4254.068 8537.795)" fill="#fff"/>
  </g>
</svg>
