<svg xmlns="http://www.w3.org/2000/svg" width="23.989" height="24.002" viewBox="0 0 23.989 24.002">
  <g id="fi-rr-time-forward" transform="translate(-0.011)">
    <path id="Path_24245" data-name="Path 24245" d="M23,11a1,1,0,0,0-1,1,10.034,10.034,0,1,1-2.9-7.021A.862.862,0,0,1,19,5H16a1,1,0,0,0,0,2h3a3,3,0,0,0,3-3V1a1,1,0,0,0-2,0V3.065A11.994,11.994,0,1,0,24,12,1,1,0,0,0,23,11Z" fill="#fff"/>
    <path id="Path_24246" data-name="Path 24246" d="M12,6a1,1,0,0,0-1,1v5a1,1,0,0,0,.293.707l3,3a1,1,0,1,0,1.414-1.414L13,11.586V7A1,1,0,0,0,12,6Z" fill="#fff"/>
  </g>
</svg>
