<svg xmlns="http://www.w3.org/2000/svg" width="50" height="50" viewBox="0 0 50 50">
  <g id="Group_4369" data-name="Group 4369" transform="translate(-9457 -11487)">
    <rect id="Rectangle_3215" data-name="Rectangle 3215" width="50" height="50" transform="translate(9457 11487)" fill="none"/>
    <g id="Layer_2" data-name="Layer 2" transform="translate(11150.605 7405.152)">
      <g id="Layer_1-2" data-name="Layer 1-2" transform="translate(-1687.074 4088.39)">
        <g id="Group_4313" data-name="Group 4313">
          <g id="Group_4107" data-name="Group 4107">
            <g id="pistachio">
              <path id="Path_3661" data-name="Path 3661" d="M-1656.64,4097.843a6.462,6.462,0,0,0-5.273-7.463h0a6.7,6.7,0,0,0-2.2,0c-.773,3.744-.471,6.038-3.079,10.543,4.541-2.621,6.811-2.331,10.555-3.092Z" transform="translate(1691.202 -4087.995)" fill="#acacac"/>
              <path id="Path_3662" data-name="Path 3662" d="M-1650.314,4101.039c-5.241-1.208-16.026,3.623-16.026,3.623s4.686-10.76,3.623-16.025c-3.14-1.135-10.422,1.678-16.653,7.8-6.678,6.5-11.34,17.281-3.913,24.89s18.344,3.091,24.986-3.43C-1653.164,4112.862-1649.239,4104.2-1650.314,4101.039Z" transform="translate(1687.074 -4088.39)" fill="#acacac"/>
            </g>
          </g>
        </g>
      </g>
    </g>
  </g>
</svg>
