<svg xmlns="http://www.w3.org/2000/svg" width="84.967" height="84.967" viewBox="0 0 84.967 84.967">
  <g id="Group_4309" data-name="Group 4309" transform="translate(-481.397 -593.313)">
    <path id="Path_14185" data-name="Path 14185" d="M.1,31.149S9.5,44.263,34.466,43.868c0,0,15.326-.711,19.75-2.212S67.093,35.1,71.28,29.727s4.9-8.611,4.9-8.611a11,11,0,0,0-.869-6.083c-1.422-2.686-4.345-8.137-9.4-12.008S57.139.1,57.139.1,41.576.656,35.888,2.552,25.934,4.369,11.951,14.875q-1.374,1.033-2.726,2.1-1.154.911-2.283,1.851-.952.8-1.878,1.621-.769.688-1.512,1.4c-.4.392-.8.792-1.184,1.2-.308.33-.608.667-.9,1.016-.225.273-.442.553-.645.843a7.947,7.947,0,0,0-.433.685,4.487,4.487,0,0,0-.259.542,2.454,2.454,0,0,0-.124.413,1.99,1.99,0,0,0,.057.6,1.538,1.538,0,0,0,.193.833,1.433,1.433,0,0,0,.659.485s.77,1.1-.207,1.6S.1,31.149.1,31.149Z" transform="translate(566.364 624.339) rotate(135)" fill="#acacac"/>
    <path id="Path_14190" data-name="Path 14190" d="M0,7.51A31.218,31.218,0,0,1,4.722,4.95,19.893,19.893,0,0,1,9.788,3.4l.65-.092.652-.035a9.829,9.829,0,0,1,1.3.011c.877.061,1.779.176,2.667.275,1.783.2,3.577.414,5.393.524a44.41,44.41,0,0,0,10.832-.834A45.918,45.918,0,0,0,41.594,0c-1.7.579-3.429,1.082-5.176,1.489-1.74.428-3.5.771-5.264,1.049s-3.543.476-5.323.586a40.656,40.656,0,0,1-5.333.035c-1.778-.089-3.558-.3-5.353-.469-.9-.078-1.788-.17-2.706-.213a9.739,9.739,0,0,0-1.4.025l-.693.065-.681.124a18.7,18.7,0,0,0-5.14,1.85c-.807.414-1.582.886-2.342,1.373A21.822,21.822,0,0,0,0,7.51Z" transform="translate(538.131 626.861) rotate(135)" fill="#707070"/>
  </g>
</svg>
