<svg xmlns="http://www.w3.org/2000/svg" width="42" height="42" viewBox="0 0 42 42">
  <g id="Group_8323" data-name="Group 8323" transform="translate(-13429 6555)">
    <rect id="Rectangle_5731" data-name="Rectangle 5731" width="42" height="42" rx="21" transform="translate(13429 -6555)" fill="#fff"/>
    <path id="Path_3810" data-name="Path 3810" d="M1.181,5.458a11.72,11.72,0,0,1,.7-4.44A11.753,11.753,0,0,1,4.615-2.632,21.057,21.057,0,0,0,7.208-5.458a5,5,0,0,0,.841-2.779,4.23,4.23,0,0,0-.977-3.012,3.741,3.741,0,0,0-2.86-1.037,4.149,4.149,0,0,0-2.924,1.018,3.575,3.575,0,0,0-1.1,2.755H-4.922A7.59,7.59,0,0,1-2.38-14.4a9.659,9.659,0,0,1,6.594-2.171A9.408,9.408,0,0,1,10.8-14.426,7.7,7.7,0,0,1,13.153-8.44,9.828,9.828,0,0,1,9.965-1.691L7.384.861a6.911,6.911,0,0,0-1.43,4.6ZM.828,11.981A2.681,2.681,0,0,1,1.6,9.986a2.86,2.86,0,0,1,2.1-.763,2.86,2.86,0,0,1,2.123.782A2.7,2.7,0,0,1,6.6,11.981a2.683,2.683,0,0,1-.741,1.949,2.833,2.833,0,0,1-2.145.782,2.8,2.8,0,0,1-2.145-.782,2.7,2.7,0,0,1-.741-1.949Z" transform="translate(13445.879 -6533.065)" fill="#6d7c94"/>
  </g>
</svg>
