<svg xmlns="http://www.w3.org/2000/svg" width="42" height="42" viewBox="0 0 42 42">
  <g id="Light_Stain" data-name="Light Stain" transform="translate(8883 -8491)">
    <rect id="Rectangle_5730" data-name="Rectangle 5730" width="42" height="42" transform="translate(-8883 8491)" fill="none"/>
    <g id="Group_8323" data-name="Group 8323" transform="translate(-9082.586 8011.836)">
      <g id="pistachio" transform="translate(173.946 430.838) rotate(45)">
        <path id="Path_3661" data-name="Path 3661" d="M213.71,2.257a5.346,5.346,0,0,0-8.736.014c1.735,2.643,3.232,7.111,4.363,11.295,1.126-4.191,2.622-8.668,4.373-11.308Z" transform="translate(-127.348)" fill="#3b5eb1"/>
        <path id="Path_3662" data-name="Path 3662" d="M89.267,34.765C85.5,37.13,81.99,55.556,81.99,55.556S78.433,37.2,74.713,34.765c-2.506,1.177-5.121,7.085-5.186,14.321-.07,7.71,3.518,16.786,12.323,16.865S94.4,57.021,94.474,49.31C94.528,43.358,91.751,35.987,89.267,34.765Z" transform="translate(0 -32.686)" fill="#3b5eb1"/>
      </g>
      <path id="Path_3663" data-name="Path 3663" d="M8307.4,5302.726c-.463-1.829-.864-1.97,0-2.773a2.011,2.011,0,0,1,1.809-.542,1.3,1.3,0,0,0,.984-.884c.16-.724,2.793-.341,1.467,1.267s-1.89,1.929-1.708,2.793S8307.858,5304.555,8307.4,5302.726Z" transform="translate(-8098.493 -4800.375)" fill="#fff"/>
      <path id="Path_3666" data-name="Path 3666" d="M8307.4,5302.726c-.463-1.829-.864-1.97,0-2.773a2.011,2.011,0,0,1,1.809-.542,1.3,1.3,0,0,0,.984-.884c.16-.724,2.793-.341,1.467,1.267s-1.89,1.929-1.708,2.793S8307.858,5304.555,8307.4,5302.726Z" transform="translate(2348.078 10132.26) rotate(-135)" fill="#fff"/>
      <path id="Path_3664" data-name="Path 3664" d="M8307.262,5301.525c-.341-1.346-.637-1.45,0-2.042a1.479,1.479,0,0,1,1.331-.4.954.954,0,0,0,.725-.651c.118-.533,2.056-.251,1.08.932s-1.392,1.42-1.258,2.056S8307.6,5302.872,8307.262,5301.525Z" transform="translate(10027.508 -447.2) rotate(142)" fill="#fff"/>
      <path id="Path_3665" data-name="Path 3665" d="M.463.9C.042,2.561-.323,2.69.463,3.42a1.826,1.826,0,0,0,1.643.493,1.178,1.178,0,0,1,.895.8c.146.658,2.538.31,1.334-1.151S2.616,1.812,2.782,1.027.884-.763.463.9Z" transform="matrix(0.259, 0.966, -0.966, 0.259, 231.79, 498.66)" fill="#fff"/>
    </g>
  </g>
</svg>
