<svg xmlns="http://www.w3.org/2000/svg" width="50" height="50" viewBox="0 0 50 50">
  <g id="Group_4176" data-name="Group 4176" transform="translate(-4232 -8632.064)">
    <g id="Group_4149" data-name="Group 4149" transform="translate(4232 8632.064)">
      <g id="Group_4147" data-name="Group 4147">
        <ellipse id="Ellipse_142" data-name="Ellipse 142" cx="20.065" cy="20.065" rx="20.065" ry="20.065" transform="translate(5 5)" fill="#3b5eb1"/>
        <rect id="Rectangle_2868" data-name="Rectangle 2868" width="50" height="50" fill="none"/>
      </g>
    </g>
    <path id="fi-sr-trash" d="M15.294,2.8H13.125A3.5,3.5,0,0,0,9.7,0H8.3A3.5,3.5,0,0,0,4.869,2.8H2.7a.7.7,0,0,0,0,1.4h.7v9.1a3.5,3.5,0,0,0,3.5,3.5h4.2a3.5,3.5,0,0,0,3.5-3.5V4.2h.7a.7.7,0,0,0,0-1.4Zm-7,9.1a.7.7,0,0,1-1.4,0V7.7a.7.7,0,0,1,1.4,0Zm2.8,0a.7.7,0,0,1-1.4,0V7.7a.7.7,0,0,1,1.4,0ZM6.318,2.8A2.1,2.1,0,0,1,8.3,1.4H9.7a2.1,2.1,0,0,1,1.979,1.4Z" transform="translate(4248.003 8648.669)" fill="#fff"/>
  </g>
</svg>
